<?xml version="1.0" standalone="no"?>
<!DOCTYPE svg PUBLIC "-//W3C//DTD SVG 20010904//EN"
 "http://www.w3.org/TR/2001/REC-SVG-20010904/DTD/svg10.dtd">
<svg version="1.0" xmlns="http://www.w3.org/2000/svg"
 width="200.000000pt" height="200.000000pt" viewBox="0 0 200.000000 200.000000"
 preserveAspectRatio="xMidYMid meet">
<metadata>
Created by potrace 1.16, written by Peter Selinger 2001-2019
</metadata>
<g transform="translate(0.000000,200.000000) scale(0.100000,-0.100000)"
fill="#000000" stroke="none">
<path d="M1293 1885 c-290 -79 -511 -381 -489 -670 6 -66 3 -93 -15 -150 -38
-124 -108 -252 -226 -414 -17 -24 -17 -24 37 -72 l54 -48 38 35 c116 104 294
213 403 247 28 8 94 18 148 21 203 12 381 111 503 282 213 298 139 665 -154
763 -73 25 -218 28 -299 6z m-423 -885 c0 -18 77 -95 115 -116 19 -10 35 -21
35 -24 0 -3 -39 -23 -87 -44 -49 -22 -112 -50 -141 -62 l-52 -24 13 33 c7 17
33 80 57 140 39 94 60 129 60 97z"/>
<path d="M293 398 c-163 -164 -178 -188 -153 -248 16 -39 37 -50 92 -50 52 1
57 4 139 100 35 41 98 110 139 153 l74 79 -61 59 c-33 32 -65 59 -70 59 -4 0
-77 -69 -160 -152z"/>
</g>
</svg>
